<svg width="64" height="64" viewBox="0 0 64 64" fill="none" xmlns="http://www.w3.org/2000/svg">
  <defs>
    <linearGradient id="bg" x1="8" y1="6" x2="56" y2="58" gradientUnits="userSpaceOnUse">
      <stop stop-color="#F8FBFF"/>
      <stop offset="1" stop-color="#DCEEFF"/>
    </linearGradient>
    <linearGradient id="tooth" x1="20" y1="14" x2="43" y2="49" gradientUnits="userSpaceOnUse">
      <stop stop-color="#FAFDFF"/>
      <stop offset="1" stop-color="#CFE3F7"/>
    </linearGradient>
    <linearGradient id="smile" x1="14" y1="31" x2="50" y2="41" gradientUnits="userSpaceOnUse">
      <stop stop-color="#B70F49"/>
      <stop offset="1" stop-color="#E14378"/>
    </linearGradient>
    <filter id="shadow" x="6" y="6" width="52" height="52" filterUnits="userSpaceOnUse" color-interpolation-filters="sRGB">
      <feDropShadow dx="0" dy="3" stdDeviation="3" flood-color="#123B6D" flood-opacity="0.18"/>
    </filter>
  </defs>

  <rect x="6" y="6" width="52" height="52" rx="16" fill="url(#bg)"/>

  <g filter="url(#shadow)">
    <path
      d="M22.4 17.6C25.7 14.4 29.7 15.1 32 18.9C34.3 15.1 38.3 14.4 41.6 17.6C45.9 21.8 43.8 27.9 41.9 34.1C40.4 39 38.7 46 34.9 46C33 46 32.8 43.6 32 42.3C31.2 43.6 31 46 29.1 46C25.3 46 23.6 39 22.1 34.1C20.2 27.9 18.1 21.8 22.4 17.6Z"
      fill="url(#tooth)"
      stroke="#1F5B96"
      stroke-width="2.6"
      stroke-linejoin="round"
    />
    <path
      d="M17 34.5C25.4 38.3 37.2 38.4 47 33.3"
      stroke="url(#smile)"
      stroke-width="5.8"
      stroke-linecap="round"
    />
    <path
      d="M21.7 17.7C18.8 23 20.7 29.1 22.5 34.8"
      stroke="#5EA5D6"
      stroke-width="2"
      stroke-linecap="round"
      opacity="0.9"
    />
    <path
      d="M42.3 17.7C45.2 23 43.3 29.1 41.5 34.8"
      stroke="#5EA5D6"
      stroke-width="2"
      stroke-linecap="round"
      opacity="0.9"
    />
  </g>
</svg>
